<?xml version="1.0" encoding="UTF-8"?><svg id="a" xmlns="http://www.w3.org/2000/svg" xmlns:xlink="http://www.w3.org/1999/xlink" viewBox="0 0 128 128"><defs><style>.c{fill:#000;}.c,.d,.e{stroke-width:0px;}.d{fill:#fff;}.e{fill:url(#b);}</style><linearGradient id="b" x1="64" y1="115.5" x2="64" y2="12.5" gradientUnits="userSpaceOnUse"><stop offset=".1" stop-color="#fff" stop-opacity=".02"/><stop offset=".9" stop-color="#fff" stop-opacity=".1"/></linearGradient></defs><rect class="c" x="12.5" y="12.5" width="103" height="103" rx="8" ry="8"/><rect class="e" x="12.5" y="12.5" width="103" height="103" rx="8" ry="8"/><path class="d" d="M94.1747,86.7607c-.069,4.1364-3.53,7.4151-7.667,7.4151h-31.0966c-1.2093,0-2.0301-1.2293-1.5667-2.3462l.0105-.0254c2.0448-4.937,5.3628-9.103,9.5996-12.1421.527-.378,1.1629-.5741,1.8115-.5741h21.3658c4.2093,0,7.6133,3.4473,7.5429,7.6728Z"/><path class="d" d="M72.5889,33.8242c1.2093,0,2.0301,1.2293,1.5667,2.3462l-.0105.0254c-2.0448,4.9371-5.3628,9.103-9.5996,12.1421-.527.378-1.1629.5741-1.8115.5741h-21.2417c-4.137,0-7.598-3.2787-7.667-7.4151-.0705-4.2254,3.3336-7.6728,7.5429-7.6728h31.2207Z"/><path class="d" d="M41.3668,94.1758c-.9621,0-1.9396-.1851-2.8837-.5761-3.8491-1.5943-5.6769-6.007-4.0827-9.856,2.452-5.9196,5.9665-11.2265,10.4462-15.7732,4.6407-4.7104,10.1135-8.3909,16.2666-10.9396,8.4577-3.5035,15.0448-10.0905,18.5478-18.5478,1.5943-3.8492,6.0072-5.6768,9.856-4.0827,3.8491,1.5943,5.6769,6.007,4.0827,9.856-2.452,5.9196-5.9665,11.2265-10.4462,15.7732-4.6407,4.7104-10.1135,8.3909-16.2666,10.9396-8.4577,3.5035-15.0448,10.0905-18.5478,18.5478-1.2032,2.9049-4.0124,4.6588-6.9722,4.6588Z"/></svg>